<?xml version="1.0" standalone="no"?><!DOCTYPE svg PUBLIC "-//W3C//DTD SVG 1.1//EN" "http://www.w3.org/Graphics/SVG/1.1/DTD/svg11.dtd"><svg t="1649865859312" class="icon" viewBox="0 0 1024 1024" version="1.1" xmlns="http://www.w3.org/2000/svg" p-id="3117" xmlns:xlink="http://www.w3.org/1999/xlink" width="48" height="48"><path d="M784.41750466 726.49378414m32.95356519 32.95356397l153.78330055 153.78330055q32.95356397 32.95356397 0 65.90712915l0 0q-32.95356397 32.95356397-65.90712916 0l-153.78330055-153.78330055q-32.95356397-32.95356397 0-65.90712915l0 0q32.95356397-32.95356397 65.90712916 0Z" p-id="3118"></path><path d="M488.48213333 931.4304C239.68223383 931.4304 37.9828148 729.73098098 37.9828148 480.93108148S239.68223383 30.43176297 488.48213333 30.43176297 938.98145184 232.13118198 938.98145184 480.93108148 737.28203282 931.4304 488.48213333 931.4304z m0-93.20675555c197.31870151 0 357.29256297-159.97386145 357.29256296-357.29256297S685.80083483 123.63851852 488.48213333 123.63851852 131.18957036 283.61237997 131.18957036 480.93108148 291.16343181 838.22364445 488.48213333 838.22364445z" p-id="3119"></path><path d="M380.64191714 206.12649718a46.60337778 46.60337778 0 1 1 34.0515347 86.74442051c-52.13364528 20.50548622-93.79706501 62.13783703-114.27148231 114.27148231a46.60337778 46.60337778 0 0 1-86.7444205-34.08260362 295.96251781 295.96251781 0 0 1 166.96436811-166.9332992z" p-id="3120"></path></svg>